HIERARCHY
ROOT Hips
{
  OFFSET 43.1326 95.8802 26.1617
  CHANNELS 6 Xposition Yposition Zposition Zrotation Xrotation Yrotation
  JOINT spine
  {
    OFFSET 0 8.1325 0.467659
    CHANNELS 3 Zrotation Xrotation Yrotation
    JOINT spine1
    {
      OFFSET 0 10.3498 0
      CHANNELS 3 Zrotation Xrotation Yrotation
      JOINT spine2
      {
        OFFSET 0 9.91699 0
        CHANNELS 3 Zrotation Xrotation Yrotation
        JOINT Neck
        {
          OFFSET 0 25.461 1.2139
          CHANNELS 3 Zrotation Xrotation Yrotation
          JOINT Head
          {
            OFFSET 0 7.69245 0
            CHANNELS 3 Zrotation Xrotation Yrotation
            End Site
            {
              OFFSET 0 18.62 -6.14063
            }
          }
        }
        JOINT RightShoulder
        {
          OFFSET -4.17575 10.7096 -0.581445
          CHANNELS 3 Zrotation Xrotation Yrotation
          JOINT RightArm
          {
            OFFSET 0 14.0466 0
            CHANNELS 3 Zrotation Xrotation Yrotation
            JOINT RightArmRoll
            {
              OFFSET 0 7.09098 0
              CHANNELS 3 Zrotation Xrotation Yrotation
              JOINT RightForeArm
              {
                OFFSET 0 20.6535 0
                CHANNELS 3 Zrotation Xrotation Yrotation
                JOINT RightForeArmRoll
                {
                  OFFSET 0 7.95718 0
                  CHANNELS 3 Zrotation Xrotation Yrotation
                  JOINT RightHand
                  {
                    OFFSET 0 15.9683 0
                    CHANNELS 3 Zrotation Xrotation Yrotation
                    End Site
                    {
                      OFFSET 0 0 0
                    }
                  }
                }
              }
            }
          }
        }
        JOINT LeftShoulder
        {
          OFFSET 4.17575 10.7096 -0.581445
          CHANNELS 3 Zrotation Xrotation Yrotation
          JOINT LeftArm
          {
            OFFSET 0 14.0466 0
            CHANNELS 3 Zrotation Xrotation Yrotation
            JOINT LeftArmRoll
            {
              OFFSET 0 7.09098 0
              CHANNELS 3 Zrotation Xrotation Yrotation
              JOINT LeftForeArm
              {
                OFFSET 0 20.6535 0
                CHANNELS 3 Zrotation Xrotation Yrotation
                JOINT LeftForeArmRoll
                {
                  OFFSET 0 7.95718 0
                  CHANNELS 3 Zrotation Xrotation Yrotation
                  JOINT LeftHand
                  {
                    OFFSET 0 15.9683 0
                    CHANNELS 3 Zrotation Xrotation Yrotation
                    End Site
                    {
                      OFFSET 0 0 0
                    }
                  }
                }
              }
            }
          }
        }
      }
    }
  }
  JOINT RightUpLeg
  {
    OFFSET -7.20834 -1.32182 -1.10884
    CHANNELS 3 Zrotation Xrotation Yrotation
    JOINT RightUpLegRoll
    {
      OFFSET 0 18.7238 0
      CHANNELS 3 Zrotation Xrotation Yrotation
      JOINT RightLeg
      {
        OFFSET 0 -23.1866 0
        CHANNELS 3 Zrotation Xrotation Yrotation
        JOINT RightLegRoll
        {
          OFFSET 0 23.2624 0
          CHANNELS 3 Zrotation Xrotation Yrotation
          JOINT RightFoot
          {
            OFFSET 0 19.3621 0
            CHANNELS 3 Zrotation Xrotation Yrotation
            JOINT RightToeBase
            {
              OFFSET 0 16.1857 0
              CHANNELS 3 Zrotation Xrotation Yrotation
              End Site
              {
                OFFSET 0.00686052 7.83862 -0.903522
              }
            }
          }
        }
      }
    }
  }
  JOINT LeftUpLeg
  {
    OFFSET 7.20834 -1.32182 -1.10884
    CHANNELS 3 Zrotation Xrotation Yrotation
    JOINT LeftUpLegRoll
    {
      OFFSET 0 18.7239 0
      CHANNELS 3 Zrotation Xrotation Yrotation
      JOINT LeftLeg
      {
        OFFSET 0 23.1865 0
        CHANNELS 3 Zrotation Xrotation Yrotation
        JOINT LeftLegRoll
        {
          OFFSET 0 23.4775 0
          CHANNELS 3 Zrotation Xrotation Yrotation
          JOINT LeftFoot
          {
            OFFSET 0 19.147 0
            CHANNELS 3 Zrotation Xrotation Yrotation
            JOINT LeftToeBase
            {
              OFFSET 0 16.1857 0
              CHANNELS 3 Zrotation Xrotation Yrotation
              End Site
              {
                OFFSET -0.0307459 7.83862 -0.903522
              }
            }
          }
        }
      }
    }
  }
}
MOTION
Frames: 10
Frame Time: 0.00208333
57.9776 96.6355 17.4362 1.44601 -2.60561 53.0193 -0.265108 -1.15555 0.933999 -0.51452 1.68412 1.90755 -0.537852 3.32878 1.91747 -11.1585 -6.11238 2.52597 5.41748 4.70701 1.75426 31.1663 -10.2976 -6.40048 -118.747 47.3995 -132.957 -9.58815e-006 1.05715e-006 -8.56445e-006 -4.96928 4.90518 -0.0910509 -3.17359e-006 2.75331e-006 -2.99999 8.02948 -4.95142 0.697667 -62.5568 -19.4703 11.8608 -103.574 24.7903 -4.29474 -1.04503e-005 -9.75897e-007 6.55366e-006 -9.79995 3.11993 1.01757 1.62392e-005 5.49359e-006 3.00546 -8.02908 -4.95144 -0.697685 172.395 0.99738 5.8344 180 7.01517e-015 178.799 177.65 25.8891 179.694 1.37099e-006 -3.52311e-006 0.546664 -20.8508 70.5408 21.9067 7.71973 30.9831 3.8272 -178.999 4.49067 2.88915 4.54188e-006 -4.6773e-006 -1.01044 -0.555847 -9.29026 0.331152 5.55251e-008 -4.95664e-006 -0.170566 18.3232 68.2229 -19.7143 -8.13673 25.2361 3.48437 
57.9684 96.6416 17.4568 1.42786 -2.61526 53.1099 -0.262018 -1.15498 0.93397 -0.5089 1.68551 1.90692 -0.532218 3.33017 1.91674 -11.3651 -6.15348 2.50259 5.62689 4.699 1.72697 31.1303 -10.1936 -6.29154 -119.167 47.5088 -132.702 -9.58815e-006 1.05715e-006 -8.56445e-006 -4.64142 4.93589 -0.137939 -3.17359e-006 2.75331e-006 -2.99999 8.02948 -4.95142 0.697667 -62.6422 -19.4941 11.8658 -103.574 24.7199 -4.29315 -1.04503e-005 -9.75897e-007 6.55366e-006 -9.81689 3.17841 1.02246 1.62392e-005 5.49359e-006 3.0055 -8.02908 -4.95144 -0.697685 172.403 0.992459 5.8329 180 7.01516e-015 178.797 177.647 25.8553 179.695 1.37099e-006 -3.52311e-006 0.544675 -20.8292 70.5171 21.8846 7.71829 30.9682 3.84334 -178.963 4.50307 2.87317 4.54188e-006 -4.6773e-006 -1.00937 -0.548518 -9.28426 0.332766 5.55251e-008 -4.95664e-006 -0.169866 18.2955 68.2115 -19.7047 -8.13673 25.2361 3.48437 
57.9568 96.6436 17.4828 1.40957 -2.62533 53.1985 -0.258684 -1.15418 0.933865 -0.502846 1.68744 1.90607 -0.526148 3.3321 1.91578 -11.5725 -6.19685 2.47985 5.83648 4.69061 1.70055 31.1064 -10.0868 -6.17957 -119.606 47.6327 -132.436 -9.58815e-006 1.05715e-006 -8.56445e-006 -4.2938 5.00318 -0.187328 -3.17359e-006 2.75331e-006 -2.99999 8.02948 -4.95142 0.697667 -62.7253 -19.5189 11.8717 -103.578 24.6482 -4.29239 -1.04503e-005 -9.75897e-007 6.55366e-006 -9.83308 3.23593 1.02736 1.62392e-005 5.49359e-006 3.00555 -8.02908 -4.95144 -0.697685 172.41 0.988033 5.83195 180 7.01516e-015 178.796 177.643 25.8226 179.697 1.37099e-006 -3.52311e-006 0.542713 -20.8073 70.493 21.8623 7.71672 30.9537 3.85988 -178.927 4.51488 2.85676 4.54188e-006 -4.6773e-006 -1.00833 -0.541379 -9.27844 0.334404 5.55251e-008 -4.95664e-006 -0.169221 18.2684 68.2006 -19.6954 -8.13673 25.2362 3.48436 
57.951 96.6474 17.5054 1.39134 -2.63609 53.2851 -0.255115 -1.1531 0.933672 -0.496359 1.69001 1.90497 -0.519641 3.33467 1.91456 -11.7798 -6.24292 2.4575 6.04522 4.68304 1.6748 31.0941 -9.97756 -6.06508 -120.065 47.7685 -132.157 -9.58815e-006 1.05715e-006 -8.56445e-006 -3.93063 5.10226 -0.238879 -3.17359e-006 2.75331e-006 -2.99999 8.02948 -4.95142 0.697667 -62.8065 -19.5447 11.8783 -103.586 24.5751 -4.29257 -1.04503e-005 -9.75897e-007 6.55366e-006 -9.8485 3.29242 1.03224 1.62392e-005 5.49359e-006 3.00559 -8.02908 -4.95144 -0.697685 172.416 0.983783 5.83135 180 7.01516e-015 178.795 177.639 25.791 179.699 1.37099e-006 -3.52311e-006 0.540776 -20.7851 70.4684 21.8396 7.71504 30.9398 3.87677 -178.889 4.52589 2.83977 4.54188e-006 -4.6773e-006 -1.0073 -0.534427 -9.27298 0.336055 5.55251e-008 -4.95664e-006 -0.16862 18.2416 68.19 -19.6865 -8.13673 25.2362 3.48435 
57.9444 96.6529 17.5296 1.37338 -2.64783 53.3697 -0.251319 -1.15167 0.933379 -0.489439 1.69332 1.90362 -0.512698 3.33799 1.91309 -11.986 -6.29211 2.43534 6.25204 4.67749 1.64953 31.0926 -9.86622 -5.94861 -120.541 47.9138 -131.86 -9.58815e-006 1.05715e-006 -8.56445e-006 -3.55611 5.22833 -0.292251 -3.17359e-006 2.75331e-006 -2.99999 8.02948 -4.95142 0.697667 -62.886 -19.5711 11.8855 -103.596 24.5006 -4.29383 -1.04503e-005 -9.75897e-007 6.55366e-006 -9.86318 3.34781 1.0371 1.62392e-005 5.49359e-006 3.00563 -8.02908 -4.95144 -0.697685 172.422 0.979388 5.83091 180 7.01515e-015 178.794 177.635 25.7605 179.701 1.37099e-006 -3.52311e-006 0.538858 -20.7623 70.4432 21.8164 7.71324 30.9268 3.894 -178.851 4.53592 2.82206 4.54188e-006 -4.6773e-006 -1.0063 -0.527659 -9.26805 0.337705 5.55251e-008 -4.95664e-006 -0.168052 18.2152 68.1797 -19.6778 -8.13673 25.2362 3.48435 
57.937 96.6543 17.5498 1.35588 -2.66081 53.4526 -0.247303 -1.14984 0.932972 -0.482088 1.69747 1.90199 -0.505319 3.34214 1.91133 -12.1903 -6.34483 2.41314 6.45591 4.6752 1.62453 31.1016 -9.75315 -5.83067 -121.035 48.0659 -131.544 -9.58815e-006 1.05715e-006 -8.56445e-006 -3.17449 5.3766 -0.347103 -3.17359e-006 2.75331e-006 -2.99999 8.02948 -4.95142 0.697667 -62.9639 -19.598 11.8931 -103.608 24.4248 -4.29631 -1.04503e-005 -9.75897e-007 6.55366e-006 -9.87711 3.40202 1.0419 1.62392e-005 5.49359e-006 3.00567 -8.02908 -4.95144 -0.697685 172.429 0.974529 5.83042 180 7.01515e-015 178.793 177.632 25.7311 179.702 1.37099e-006 -3.52311e-006 0.536956 -20.7388 70.4173 21.7923 7.71134 30.915 3.91153 -178.813 4.5448 2.8035 4.54188e-006 -4.6773e-006 -1.00533 -0.52107 -9.26382 0.339344 5.55251e-008 -4.95664e-006 -0.167506 18.189 68.1697 -19.6693 -8.13673 25.2362 3.48434 
57.9352 96.6472 17.5683 1.33904 -2.6753 53.5337 -0.243075 -1.14755 0.93244 -0.474304 1.70255 1.90009 -0.497506 3.34722 1.90928 -12.3915 -6.40151 2.39066 6.65578 4.67735 1.59961 31.1203 -9.63871 -5.71177 -121.544 48.2222 -131.204 -9.58815e-006 1.05715e-006 -8.56445e-006 -2.79001 5.54227 -0.403092 -3.17359e-006 2.75331e-006 -2.99999 8.02948 -4.95142 0.697667 -63.0407 -19.625 11.9009 -103.621 24.3474 -4.30015 -1.04503e-005 -9.75897e-007 6.55366e-006 -9.89029 3.45498 1.04662 1.62392e-005 5.49359e-006 3.00571 -8.02908 -4.95144 -0.697685 172.435 0.968885 5.8297 180 7.01515e-015 178.791 177.63 25.703 179.703 1.37099e-006 -3.52311e-006 0.535067 -20.7145 70.3906 21.7673 7.70932 30.9046 3.92934 -178.773 4.55233 2.78396 4.54188e-006 -4.6773e-006 -1.0044 -0.514657 -9.26047 0.340959 5.55251e-008 -4.95664e-006 -0.16697 18.1631 68.1599 -19.661 -8.13673 25.2362 3.48433 
57.9261 96.6519 17.5892 1.32308 -2.69156 53.6132 -0.238644 -1.14473 0.931769 -0.46609 1.70867 1.89788 -0.489257 3.35334 1.90693 -12.5888 -6.46258 2.36768 6.8506 4.68518 1.57457 31.1482 -9.52328 -5.59243 -122.068 48.38 -130.838 -9.58815e-006 1.05715e-006 -8.56445e-006 -2.40695 5.72054 -0.459875 -3.17359e-006 2.75331e-006 -2.99999 8.02948 -4.95142 0.697667 -63.1166 -19.652 11.9087 -103.636 24.2687 -4.30547 -1.04503e-005 -9.75897e-007 6.55366e-006 -9.90273 3.50661 1.05123 1.62392e-005 5.49359e-006 3.00575 -8.02908 -4.95144 -0.697685 172.442 0.962138 5.82853 180 7.01514e-015 178.79 177.628 25.6761 179.704 1.37099e-006 -3.52311e-006 0.533186 -20.6891 70.3629 21.741 7.7072 30.8959 3.94739 -178.732 4.55833 2.76328 4.54188e-006 -4.6773e-006 -1.0035 -0.508415 -9.25816 0.342539 5.55251e-008 -4.95664e-006 -0.166434 18.1372 68.1502 -19.6529 -8.13673 25.2362 3.48433 
57.9189 96.6556 17.6122 1.3082 -2.70986 53.691 -0.234017 -1.14133 0.930948 -0.457445 1.71592 1.89536 -0.480574 3.36059 1.90426 -12.7812 -6.52845 2.34397 7.03933 4.69988 1.54921 31.1849 -9.40721 -5.47317 -122.605 48.5365 -130.442 -9.58815e-006 1.05715e-006 -8.56445e-006 -2.0296 5.90662 -0.517106 -3.17359e-006 2.75331e-006 -2.99999 8.02948 -4.95142 0.697667 -63.1918 -19.6786 11.9164 -103.65 24.1885 -4.31242 -1.04503e-005 -9.75897e-007 6.55366e-006 -9.91444 3.55684 1.05572 1.62392e-005 5.49359e-006 3.00579 -8.02908 -4.95144 -0.697685 172.449 0.953966 5.82672 180 7.01514e-015 178.788 177.628 25.6504 179.704 1.37099e-006 -3.52311e-006 0.53131 -20.6626 70.3341 21.7134 7.70499 30.8892 3.96566 -178.69 4.56262 2.74134 4.54188e-006 -4.6773e-006 -1.00264 -0.50234 -9.25708 0.344071 5.55251e-008 -4.95664e-006 -0.165887 18.1114 68.1407 -19.6449 -8.13673 25.2362 3.48432 
57.9123 96.6606 17.6278 1.2946 -2.73045 53.7674 -0.229201 -1.13729 0.929963 -0.44837 1.72439 1.89252 -0.471457 3.36907 1.90125 -12.9678 -6.59954 2.31932 7.22094 4.72267 1.52333 31.2297 -9.29088 -5.35449 -123.155 48.6886 -130.013 -9.58815e-006 1.05715e-006 -8.56445e-006 -1.66227 6.09573 -0.574437 -3.17359e-006 2.75331e-006 -2.99999 8.02948 -4.95142 0.697667 -63.2667 -19.7047 11.9237 -103.664 24.1068 -4.32112 -1.04503e-005 -9.75897e-007 6.55366e-006 -9.92541 3.6056 1.06006 1.62392e-005 5.49359e-006 3.00583 -8.02908 -4.95144 -0.697685 172.457 0.944049 5.82407 180 7.01514e-015 178.787 177.63 25.6261 179.704 1.37099e-006 -3.52311e-006 0.529435 -20.6348 70.3042 21.6842 7.70267 30.8847 3.98412 -178.646 4.56501 2.718 4.54188e-006 -4.6773e-006 -1.00183 -0.496429 -9.2574 0.345544 5.55251e-008 -4.95664e-006 -0.165316 18.0856 68.1312 -19.6369 -8.13673 25.2362 3.48431 
